<svg xmlns="http://www.w3.org/2000/svg" xmlns:xlink="http://www.w3.org/1999/xlink" width="500" zoomAndPan="magnify" viewBox="0 0 375 374.999991" height="500" preserveAspectRatio="xMidYMid meet" version="1.0"><defs><g/><clipPath id="c081dbadc0"><path d="M 0.679688 2 L 6 2 L 6 8 L 0.679688 8 Z M 0.679688 2 " clip-rule="nonzero"/></clipPath><clipPath id="55a8733d27"><rect x="0" width="34" y="0" height="9"/></clipPath><clipPath id="0c562a0747"><path d="M 109.730469 48.398438 L 262.730469 48.398438 L 262.730469 233 L 109.730469 233 Z M 109.730469 48.398438 " clip-rule="nonzero"/></clipPath><clipPath id="25ce3c2edd"><path d="M 170 264 L 203 264 L 203 283.734375 L 170 283.734375 Z M 170 264 " clip-rule="nonzero"/></clipPath></defs><g transform="matrix(1, 0, 0, 1, 73, 345)"><g clip-path="url(#55a8733d27)"><g clip-path="url(#c081dbadc0)"><g fill="#222222" fill-opacity="1"><g transform="translate(0.815528, 6.829141)"><g><path d="M 4.640625 0.15625 L 3.46875 0.578125 L 2.96875 -0.015625 C 2.78125 0.0351562 2.578125 0.0625 2.359375 0.0625 C 2.046875 0.0625 1.753906 0.0078125 1.484375 -0.09375 C 1.222656 -0.195312 0.992188 -0.34375 0.796875 -0.53125 C 0.597656 -0.71875 0.441406 -0.941406 0.328125 -1.203125 C 0.222656 -1.460938 0.171875 -1.75 0.171875 -2.0625 C 0.171875 -2.382812 0.222656 -2.675781 0.328125 -2.9375 C 0.441406 -3.207031 0.597656 -3.429688 0.796875 -3.609375 C 0.992188 -3.796875 1.222656 -3.941406 1.484375 -4.046875 C 1.753906 -4.148438 2.046875 -4.203125 2.359375 -4.203125 C 2.679688 -4.203125 2.972656 -4.148438 3.234375 -4.046875 C 3.503906 -3.941406 3.738281 -3.796875 3.9375 -3.609375 C 4.132812 -3.429688 4.285156 -3.207031 4.390625 -2.9375 C 4.503906 -2.675781 4.5625 -2.382812 4.5625 -2.0625 C 4.5625 -1.769531 4.507812 -1.5 4.40625 -1.25 C 4.3125 -1 4.179688 -0.785156 4.015625 -0.609375 Z M 1.25 -2.0625 C 1.25 -1.8125 1.296875 -1.59375 1.390625 -1.40625 C 1.484375 -1.226562 1.613281 -1.09375 1.78125 -1 C 1.957031 -0.90625 2.148438 -0.859375 2.359375 -0.859375 C 2.578125 -0.859375 2.769531 -0.90625 2.9375 -1 C 3.101562 -1.09375 3.234375 -1.226562 3.328125 -1.40625 C 3.429688 -1.59375 3.484375 -1.8125 3.484375 -2.0625 C 3.484375 -2.25 3.453125 -2.410156 3.390625 -2.546875 C 3.335938 -2.691406 3.257812 -2.8125 3.15625 -2.90625 C 3.0625 -3.007812 2.945312 -3.085938 2.8125 -3.140625 C 2.675781 -3.191406 2.523438 -3.21875 2.359375 -3.21875 C 2.203125 -3.21875 2.054688 -3.191406 1.921875 -3.140625 C 1.785156 -3.085938 1.664062 -3.007812 1.5625 -2.90625 C 1.457031 -2.8125 1.378906 -2.691406 1.328125 -2.546875 C 1.273438 -2.410156 1.25 -2.25 1.25 -2.0625 Z M 1.25 -2.0625 "/></g></g></g></g><g fill="#222222" fill-opacity="1"><g transform="translate(6.293659, 6.829141)"><g><path d="M 2.0625 0.0625 C 1.832031 0.0625 1.613281 0.0351562 1.40625 -0.015625 C 1.195312 -0.078125 1.015625 -0.171875 0.859375 -0.296875 C 0.710938 -0.421875 0.59375 -0.582031 0.5 -0.78125 C 0.414062 -0.976562 0.375 -1.21875 0.375 -1.5 L 0.375 -4.140625 L 1.453125 -4.140625 L 1.453125 -1.640625 C 1.453125 -1.441406 1.476562 -1.285156 1.53125 -1.171875 C 1.582031 -1.066406 1.65625 -0.988281 1.75 -0.9375 C 1.84375 -0.894531 1.945312 -0.875 2.0625 -0.875 C 2.1875 -0.875 2.296875 -0.894531 2.390625 -0.9375 C 2.484375 -0.988281 2.554688 -1.066406 2.609375 -1.171875 C 2.660156 -1.285156 2.6875 -1.441406 2.6875 -1.640625 L 2.6875 -4.140625 L 3.765625 -4.140625 L 3.765625 -1.5 C 3.765625 -1.21875 3.71875 -0.976562 3.625 -0.78125 C 3.539062 -0.582031 3.421875 -0.421875 3.265625 -0.296875 C 3.117188 -0.171875 2.941406 -0.078125 2.734375 -0.015625 C 2.523438 0.0351562 2.300781 0.0625 2.0625 0.0625 Z M 2.0625 0.0625 "/></g></g></g><g fill="#222222" fill-opacity="1"><g transform="translate(11.124273, 6.829141)"><g><path d="M 0.46875 0 L 0.46875 -4.140625 L 1.53125 -4.140625 L 1.53125 0 Z M 0.46875 0 "/></g></g></g><g fill="#222222" fill-opacity="1"><g transform="translate(13.812453, 6.829141)"><g><path d="M 1.515625 -0.9375 L 3.234375 -0.9375 L 3.234375 0 L 0.234375 0 L 0.234375 -0.84375 L 1.953125 -3.203125 L 0.234375 -3.203125 L 0.234375 -4.140625 L 3.21875 -4.140625 L 3.21875 -3.3125 Z M 1.515625 -0.9375 "/></g></g></g><g fill="#222222" fill-opacity="1"><g transform="translate(17.975844, 6.829141)"><g><path d="M 2.71875 -2.15625 L 4.328125 0 L 2.953125 0 L 1.78125 -1.65625 L 1.53125 -1.65625 L 1.53125 0 L 0.46875 0 L 0.46875 -4.140625 L 1.53125 -4.140625 L 1.53125 -2.59375 L 1.78125 -2.59375 L 3 -4.140625 L 4.296875 -4.140625 Z M 2.71875 -2.15625 "/></g></g></g><g fill="#222222" fill-opacity="1"><g transform="translate(23.020421, 6.829141)"><g><path d="M 3.3125 0 L 3.03125 -0.765625 L 1.375 -0.765625 L 1.125 0 L 0.03125 0 L 1.546875 -4.140625 L 2.875 -4.140625 L 4.390625 0 Z M 1.6875 -1.65625 L 2.734375 -1.65625 L 2.203125 -3.140625 Z M 1.6875 -1.65625 "/></g></g></g><g fill="#222222" fill-opacity="1"><g transform="translate(28.135379, 6.829141)"><g><path d="M 2.609375 0 L 1.546875 -1.625 L 1.53125 -1.625 L 1.53125 0 L 0.46875 0 L 0.46875 -4.140625 L 1.875 -4.140625 C 2.050781 -4.140625 2.203125 -4.132812 2.328125 -4.125 C 2.453125 -4.113281 2.5625 -4.09375 2.65625 -4.0625 C 2.75 -4.039062 2.832031 -4.015625 2.90625 -3.984375 C 3.125 -3.878906 3.28125 -3.726562 3.375 -3.53125 C 3.476562 -3.332031 3.53125 -3.101562 3.53125 -2.84375 C 3.53125 -2.695312 3.507812 -2.554688 3.46875 -2.421875 C 3.425781 -2.285156 3.359375 -2.160156 3.265625 -2.046875 C 3.171875 -1.941406 3.050781 -1.851562 2.90625 -1.78125 C 2.863281 -1.757812 2.820312 -1.742188 2.78125 -1.734375 C 2.738281 -1.722656 2.695312 -1.707031 2.65625 -1.6875 L 3.890625 0 Z M 2.296875 -3.15625 C 2.234375 -3.207031 2.15625 -3.234375 2.0625 -3.234375 C 1.96875 -3.242188 1.851562 -3.25 1.71875 -3.25 L 1.53125 -3.25 L 1.53125 -2.28125 L 1.71875 -2.28125 C 1.863281 -2.28125 1.976562 -2.285156 2.0625 -2.296875 C 2.15625 -2.304688 2.234375 -2.332031 2.296875 -2.375 C 2.347656 -2.414062 2.382812 -2.460938 2.40625 -2.515625 C 2.4375 -2.578125 2.453125 -2.660156 2.453125 -2.765625 C 2.453125 -2.867188 2.4375 -2.953125 2.40625 -3.015625 C 2.375 -3.078125 2.335938 -3.125 2.296875 -3.15625 Z M 2.296875 -3.15625 "/></g></g></g></g></g><g fill="#222222" fill-opacity="1"><g transform="translate(133.075359, 356.664469)"><g><path d="M 4.515625 -3.578125 C 4.773438 -3.515625 5 -3.410156 5.1875 -3.265625 C 5.375 -3.117188 5.519531 -2.9375 5.625 -2.71875 C 5.738281 -2.5 5.796875 -2.226562 5.796875 -1.90625 C 5.796875 -1.519531 5.71875 -1.179688 5.5625 -0.890625 C 5.40625 -0.609375 5.171875 -0.390625 4.859375 -0.234375 C 4.546875 -0.078125 4.148438 0 3.671875 0 L 0.875 0 L 0.875 -6.78125 L 3.078125 -6.78125 C 3.566406 -6.78125 3.972656 -6.703125 4.296875 -6.546875 C 4.628906 -6.398438 4.878906 -6.1875 5.046875 -5.90625 C 5.222656 -5.632812 5.3125 -5.304688 5.3125 -4.921875 C 5.3125 -4.617188 5.242188 -4.347656 5.109375 -4.109375 C 4.984375 -3.878906 4.785156 -3.703125 4.515625 -3.578125 Z M 3.09375 -5.609375 L 2.234375 -5.609375 L 2.234375 -4.015625 L 3.140625 -4.015625 C 3.347656 -4.015625 3.515625 -4.050781 3.640625 -4.125 C 3.765625 -4.195312 3.859375 -4.296875 3.921875 -4.421875 C 3.984375 -4.546875 4.015625 -4.679688 4.015625 -4.828125 C 4.015625 -5.054688 3.9375 -5.242188 3.78125 -5.390625 C 3.632812 -5.535156 3.40625 -5.609375 3.09375 -5.609375 Z M 3.40625 -1.203125 C 3.65625 -1.203125 3.851562 -1.238281 4 -1.3125 C 4.15625 -1.394531 4.265625 -1.5 4.328125 -1.625 C 4.390625 -1.757812 4.421875 -1.90625 4.421875 -2.0625 C 4.421875 -2.207031 4.390625 -2.347656 4.328125 -2.484375 C 4.265625 -2.617188 4.15625 -2.726562 4 -2.8125 C 3.851562 -2.894531 3.644531 -2.9375 3.375 -2.9375 L 2.234375 -2.9375 L 2.234375 -1.203125 Z M 3.40625 -1.203125 "/></g></g></g><g fill="#222222" fill-opacity="1"><g transform="translate(143.361456, 356.664469)"><g><path d="M 2.328125 0 L 2.328125 -3.21875 L 0.078125 -6.78125 L 1.640625 -6.78125 L 3.015625 -4.484375 L 4.40625 -6.78125 L 5.96875 -6.78125 L 3.734375 -3.234375 L 3.734375 0 Z M 2.328125 0 "/></g></g></g><g fill="#222222" fill-opacity="1"><g transform="translate(153.516176, 356.664469)"><g/></g></g><g fill="#222222" fill-opacity="1"><g transform="translate(160.128377, 356.664469)"><g><path d="M 5.421875 0 L 4.921875 -1.390625 L 2.078125 -1.390625 L 1.578125 0 L 0.140625 0 L 2.640625 -6.78125 L 4.359375 -6.78125 L 6.859375 0 Z M 2.484375 -2.578125 L 4.515625 -2.578125 L 3.5 -5.453125 Z M 2.484375 -2.578125 "/></g></g></g><g fill="#222222" fill-opacity="1"><g transform="translate(171.240281, 356.664469)"><g><path d="M 4.453125 0 L 2.875 -2.5 L 2.28125 -2.5 L 2.28125 0 L 0.875 0 L 0.875 -6.78125 L 3.109375 -6.78125 C 3.390625 -6.78125 3.632812 -6.765625 3.84375 -6.734375 C 4.050781 -6.710938 4.226562 -6.679688 4.375 -6.640625 C 4.53125 -6.597656 4.664062 -6.550781 4.78125 -6.5 C 5.113281 -6.320312 5.347656 -6.078125 5.484375 -5.765625 C 5.628906 -5.453125 5.703125 -5.09375 5.703125 -4.6875 C 5.703125 -4.257812 5.628906 -3.882812 5.484375 -3.5625 C 5.335938 -3.238281 5.09375 -2.988281 4.75 -2.8125 C 4.625 -2.738281 4.476562 -2.675781 4.3125 -2.625 L 6.125 0 Z M 2.28125 -5.609375 L 2.28125 -3.609375 L 2.90625 -3.609375 C 3.175781 -3.609375 3.390625 -3.617188 3.546875 -3.640625 C 3.710938 -3.660156 3.847656 -3.707031 3.953125 -3.78125 C 4.179688 -3.9375 4.296875 -4.210938 4.296875 -4.609375 C 4.296875 -4.796875 4.265625 -4.953125 4.203125 -5.078125 C 4.148438 -5.210938 4.070312 -5.320312 3.96875 -5.40625 C 3.863281 -5.488281 3.726562 -5.539062 3.5625 -5.5625 C 3.394531 -5.59375 3.175781 -5.609375 2.90625 -5.609375 Z M 2.28125 -5.609375 "/></g></g></g><g fill="#222222" fill-opacity="1"><g transform="translate(181.73283, 356.664469)"><g><path d="M 3.140625 0.09375 C 2.765625 0.09375 2.421875 0.0507812 2.109375 -0.03125 C 1.796875 -0.125 1.515625 -0.253906 1.265625 -0.421875 C 1.015625 -0.585938 0.804688 -0.789062 0.640625 -1.03125 C 0.484375 -1.269531 0.378906 -1.550781 0.328125 -1.875 L 1.734375 -2.203125 C 1.828125 -1.804688 2 -1.515625 2.25 -1.328125 C 2.5 -1.148438 2.800781 -1.0625 3.15625 -1.0625 C 3.351562 -1.0625 3.53125 -1.085938 3.6875 -1.140625 C 3.851562 -1.203125 3.984375 -1.289062 4.078125 -1.40625 C 4.171875 -1.519531 4.210938 -1.671875 4.203125 -1.859375 C 4.203125 -2.023438 4.160156 -2.164062 4.078125 -2.28125 C 3.992188 -2.394531 3.875 -2.488281 3.71875 -2.5625 C 3.570312 -2.644531 3.40625 -2.71875 3.21875 -2.78125 C 3.03125 -2.84375 2.832031 -2.90625 2.625 -2.96875 C 2.425781 -3.03125 2.226562 -3.097656 2.03125 -3.171875 C 1.832031 -3.242188 1.644531 -3.328125 1.46875 -3.421875 C 1.289062 -3.523438 1.132812 -3.640625 1 -3.765625 C 0.863281 -3.898438 0.753906 -4.0625 0.671875 -4.25 C 0.597656 -4.4375 0.5625 -4.65625 0.5625 -4.90625 C 0.5625 -5.21875 0.617188 -5.492188 0.734375 -5.734375 C 0.859375 -5.984375 1.03125 -6.191406 1.25 -6.359375 C 1.46875 -6.523438 1.722656 -6.648438 2.015625 -6.734375 C 2.304688 -6.828125 2.617188 -6.875 2.953125 -6.875 C 3.253906 -6.875 3.546875 -6.84375 3.828125 -6.78125 C 4.117188 -6.71875 4.382812 -6.613281 4.625 -6.46875 C 4.875 -6.332031 5.082031 -6.148438 5.25 -5.921875 C 5.425781 -5.691406 5.550781 -5.414062 5.625 -5.09375 L 4.34375 -4.78125 C 4.238281 -5.101562 4.078125 -5.335938 3.859375 -5.484375 C 3.640625 -5.640625 3.367188 -5.71875 3.046875 -5.71875 C 2.859375 -5.71875 2.679688 -5.691406 2.515625 -5.640625 C 2.359375 -5.585938 2.234375 -5.503906 2.140625 -5.390625 C 2.046875 -5.285156 2 -5.144531 2 -4.96875 C 2 -4.820312 2.035156 -4.703125 2.109375 -4.609375 C 2.179688 -4.515625 2.285156 -4.429688 2.421875 -4.359375 C 2.554688 -4.285156 2.707031 -4.222656 2.875 -4.171875 C 3.050781 -4.117188 3.238281 -4.0625 3.4375 -4 C 3.632812 -3.9375 3.835938 -3.867188 4.046875 -3.796875 C 4.265625 -3.722656 4.46875 -3.632812 4.65625 -3.53125 C 4.851562 -3.4375 5.023438 -3.316406 5.171875 -3.171875 C 5.328125 -3.023438 5.445312 -2.847656 5.53125 -2.640625 C 5.613281 -2.441406 5.65625 -2.207031 5.65625 -1.9375 C 5.65625 -1.613281 5.59375 -1.320312 5.46875 -1.0625 C 5.351562 -0.8125 5.179688 -0.597656 4.953125 -0.421875 C 4.722656 -0.253906 4.453125 -0.125 4.140625 -0.03125 C 3.835938 0.0507812 3.503906 0.09375 3.140625 0.09375 Z M 3.140625 0.09375 "/></g></g></g><g fill="#222222" fill-opacity="1"><g transform="translate(191.93447, 356.664469)"><g><path d="M 5.421875 0 L 4.921875 -1.390625 L 2.078125 -1.390625 L 1.578125 0 L 0.140625 0 L 2.640625 -6.78125 L 4.359375 -6.78125 L 6.859375 0 Z M 2.484375 -2.578125 L 4.515625 -2.578125 L 3.5 -5.453125 Z M 2.484375 -2.578125 "/></g></g></g><g fill="#222222" fill-opacity="1"><g transform="translate(203.046374, 356.664469)"><g><path d="M 2.28125 -1.25 L 4.40625 -1.25 L 4.40625 0 L 0.875 0 L 0.875 -6.78125 L 2.28125 -6.78125 Z M 2.28125 -1.25 "/></g></g></g><g clip-path="url(#0c562a0747)"><path fill="#5ca3ff" d="M 117.980469 159.664062 C 117.226562 158.15625 116.523438 156.644531 115.878906 155.078125 C 114.667969 152.246094 113.613281 149.363281 112.75 146.394531 C 111.808594 143.105469 111.078125 139.734375 110.566406 136.335938 C 109.996094 132.589844 109.730469 128.789062 109.730469 124.984375 C 109.730469 82.671875 144.054688 48.347656 186.367188 48.347656 C 228.707031 48.347656 263.035156 82.671875 263.035156 124.984375 C 263.035156 131.1875 262.28125 137.359375 260.792969 143.375 C 260.011719 146.609375 258.988281 149.820312 257.773438 152.921875 C 257.476562 153.648438 257.179688 154.378906 256.882812 155.078125 C 255.347656 158.71875 253.515625 162.222656 251.570312 165.621094 C 249.925781 168.484375 248.203125 171.285156 246.394531 174.035156 C 244.015625 177.648438 241.566406 181.207031 239.082031 184.742188 C 234.011719 192.050781 228.621094 199.304688 224.222656 207.042969 L 219.152344 215.96875 L 201.894531 215.96875 L 201.894531 223.546875 L 216.890625 223.546875 L 216.890625 232.3125 L 193.105469 232.3125 L 193.105469 207.203125 L 214.03125 207.203125 L 214.863281 205.746094 L 216.589844 202.695312 C 221.066406 194.792969 226.703125 187.191406 231.878906 179.722656 C 234.253906 176.351562 236.679688 172.847656 239.023438 169.230469 C 240.746094 166.617188 242.390625 163.945312 243.957031 161.25 C 245.761719 158.097656 247.40625 154.859375 248.808594 151.621094 C 249.078125 151 249.324219 150.351562 249.59375 149.730469 C 250.671875 146.957031 251.5625 144.121094 252.261719 141.261719 C 253.578125 135.949219 254.230469 130.503906 254.230469 124.976562 C 254.230469 87.488281 223.835938 57.097656 186.351562 57.097656 C 148.867188 57.097656 118.496094 87.503906 118.496094 124.984375 C 118.496094 128.382812 118.761719 131.726562 119.25 135.042969 C 119.707031 138.0625 120.355469 141.027344 121.191406 143.9375 C 121.945312 146.554688 122.863281 149.117188 123.941406 151.625 C 124.535156 153.03125 125.152344 154.402344 125.855469 155.777344 C 127.152344 158.394531 128.609375 160.980469 130.144531 163.542969 C 132.035156 166.695312 134.054688 169.773438 136.078125 172.792969 C 137.671875 175.171875 139.285156 177.488281 140.851562 179.726562 C 140.988281 179.914062 141.121094 180.105469 141.257812 180.292969 C 147.566406 189.328125 153.253906 197.605469 158.703125 207.207031 L 179.628906 207.207031 L 179.628906 232.316406 L 155.871094 232.316406 L 155.871094 223.550781 L 170.867188 223.550781 L 170.867188 215.972656 L 153.605469 215.972656 L 151.070312 211.550781 C 145.917969 202.4375 140.039062 193.890625 134.050781 185.3125 C 133.914062 185.125 133.78125 184.933594 133.644531 184.746094 C 132.027344 182.425781 130.40625 180.082031 128.820312 177.734375 C 126.660156 174.550781 124.589844 171.34375 122.617188 168.054688 C 120.972656 165.328125 119.410156 162.527344 117.980469 159.664062 Z M 117.980469 159.664062 " fill-opacity="1" fill-rule="evenodd"/></g><path fill="#5ca3ff" d="M 164.632812 225.734375 L 164.632812 240.136719 L 208.101562 240.136719 L 208.101562 225.734375 L 216.894531 225.734375 L 216.894531 248.902344 L 155.871094 248.902344 L 155.871094 225.734375 Z M 164.632812 225.734375 " fill-opacity="1" fill-rule="evenodd"/><path fill="#5ca3ff" d="M 172.15625 242.75 L 172.15625 257.125 L 200.582031 257.125 L 200.582031 242.75 L 209.371094 242.75 L 209.371094 265.914062 L 163.390625 265.914062 L 163.390625 242.75 Z M 172.15625 242.75 " fill-opacity="1" fill-rule="evenodd"/><g clip-path="url(#25ce3c2edd)"><path fill="#5ca3ff" d="M 202.035156 264.027344 L 202.035156 268.316406 C 202.035156 276.917969 195 283.988281 186.367188 283.988281 C 177.765625 283.988281 170.726562 276.921875 170.726562 268.316406 L 170.726562 264.027344 L 179.492188 264.027344 L 179.492188 268.316406 C 179.492188 272.09375 182.621094 275.191406 186.367188 275.191406 C 190.140625 275.191406 193.242188 272.09375 193.242188 268.316406 L 193.242188 264.027344 Z M 202.035156 264.027344 " fill-opacity="1" fill-rule="evenodd"/></g><path fill="#5e17eb" d="M 175.367188 84.941406 C 178.0625 84.941406 180.222656 87.097656 180.222656 89.765625 C 180.222656 90.46875 180.085938 91.113281 179.816406 91.707031 L 186.367188 99.015625 L 186.367188 77.066406 L 180.085938 70.082031 L 164.117188 70.082031 L 152.285156 83.265625 L 152.285156 86.207031 L 158.03125 92.597656 L 162.074219 97.105469 L 162.074219 108.109375 C 163.71875 108.890625 164.875 110.5625 164.875 112.527344 C 164.875 115.195312 162.71875 117.382812 160.050781 117.382812 C 157.355469 117.382812 155.195312 115.199219 155.195312 112.527344 C 155.195312 110.558594 156.355469 108.890625 158.03125 108.109375 L 158.03125 98.644531 L 150.960938 90.792969 L 148.265625 93.816406 L 138.664062 104.488281 L 138.664062 113.980469 L 146.351562 122.558594 L 160.132812 122.558594 C 160.914062 120.882812 162.585938 119.726562 164.550781 119.726562 C 167.21875 119.726562 169.40625 121.90625 169.40625 124.578125 C 169.40625 127.246094 167.222656 129.433594 164.550781 129.433594 C 162.582031 129.433594 160.914062 128.273438 160.132812 126.601562 L 144.542969 126.601562 L 140.925781 122.558594 L 137.339844 118.539062 L 134.617188 121.585938 L 129.195312 127.628906 L 129.195312 141.734375 L 137.746094 151.253906 L 139.066406 152.738281 L 146.832031 144.082031 C 146.589844 143.488281 146.425781 142.839844 146.425781 142.140625 C 146.425781 139.472656 148.609375 137.3125 151.28125 137.3125 C 153.949219 137.3125 156.136719 139.472656 156.136719 142.140625 C 156.136719 144.835938 153.953125 146.992188 151.28125 146.992188 C 150.765625 146.992188 150.28125 146.914062 149.851562 146.777344 L 141.789062 155.753906 L 141.789062 166.027344 L 152.707031 178.191406 L 154.027344 179.675781 L 163.222656 169.429688 L 163.222656 143.972656 L 167.265625 139.464844 L 168.832031 137.714844 C 168.5625 137.121094 168.425781 136.472656 168.425781 135.800781 C 168.425781 133.105469 170.585938 130.945312 173.28125 130.945312 C 175.945312 130.945312 178.132812 133.105469 178.132812 135.800781 C 178.132812 138.46875 175.953125 140.625 173.28125 140.625 C 172.765625 140.625 172.28125 140.574219 171.824219 140.410156 L 167.265625 145.503906 L 167.265625 170.984375 L 163.222656 175.460938 L 156.753906 182.691406 L 156.753906 188.734375 L 156.941406 188.949219 L 163.441406 196.203125 L 179.996094 196.203125 L 186.359375 189.082031 L 186.359375 167.160156 L 178.671875 158.582031 C 178.214844 158.742188 177.730469 158.796875 177.214844 158.796875 C 174.546875 158.796875 172.359375 156.640625 172.359375 153.972656 C 172.359375 151.277344 174.542969 149.117188 177.214844 149.117188 C 179.910156 149.117188 182.070312 151.277344 182.070312 153.972656 C 182.070312 154.644531 181.933594 155.292969 181.664062 155.886719 L 186.359375 161.117188 L 186.359375 105.058594 L 176.808594 94.410156 C 176.351562 94.546875 175.867188 94.625 175.351562 94.625 C 172.6875 94.625 170.5 92.464844 170.5 89.769531 C 170.511719 87.097656 172.695312 84.941406 175.367188 84.941406 Z M 175.367188 84.941406 " fill-opacity="1" fill-rule="evenodd"/><path fill="#5ca3ff" d="M 197.371094 181.347656 C 194.703125 181.347656 192.546875 179.191406 192.546875 176.496094 C 192.546875 175.820312 192.683594 175.175781 192.921875 174.582031 L 186.371094 167.273438 L 186.371094 189.222656 L 192.652344 196.207031 L 208.621094 196.207031 L 220.457031 183.023438 L 220.457031 180.082031 L 214.742188 173.691406 L 210.699219 169.183594 L 210.699219 158.152344 C 209.027344 157.398438 207.867188 155.726562 207.867188 153.753906 C 207.867188 151.089844 210.046875 148.902344 212.71875 148.902344 C 215.386719 148.902344 217.574219 151.082031 217.574219 153.753906 C 217.574219 155.726562 216.414062 157.394531 214.742188 158.152344 L 214.742188 167.644531 L 221.777344 175.492188 L 224.503906 172.46875 L 234.101562 161.789062 L 234.101562 152.300781 L 226.386719 143.722656 L 212.605469 143.722656 C 211.851562 145.394531 210.152344 146.554688 208.210938 146.554688 C 205.515625 146.554688 203.355469 144.371094 203.355469 141.699219 C 203.355469 139.027344 205.515625 136.847656 208.210938 136.847656 C 210.152344 136.847656 211.847656 138.003906 212.605469 139.679688 L 228.191406 139.679688 L 231.832031 143.722656 L 235.417969 147.742188 L 238.140625 144.691406 L 243.558594 138.652344 L 243.558594 124.546875 L 235.011719 115.027344 L 233.691406 113.542969 L 225.925781 122.199219 C 226.164062 122.792969 226.300781 123.4375 226.300781 124.140625 C 226.300781 126.808594 224.144531 128.964844 221.476562 128.964844 C 218.78125 128.964844 216.621094 126.808594 216.621094 124.140625 C 216.621094 121.445312 218.78125 119.285156 221.476562 119.285156 C 221.960938 119.285156 222.449219 119.367188 222.90625 119.503906 L 230.96875 110.527344 L 230.96875 100.253906 L 220.046875 88.089844 L 218.730469 86.605469 L 209.535156 96.847656 L 209.535156 122.308594 L 205.492188 126.8125 L 203.925781 128.566406 C 204.167969 129.160156 204.332031 129.804688 204.332031 130.480469 C 204.332031 133.175781 202.148438 135.332031 199.476562 135.332031 C 196.808594 135.332031 194.625 133.175781 194.625 130.480469 C 194.625 127.8125 196.804688 125.652344 199.476562 125.652344 C 199.992188 125.652344 200.476562 125.707031 200.90625 125.871094 L 205.492188 120.777344 L 205.492188 95.292969 L 209.535156 90.816406 L 216.003906 83.589844 L 216.003906 77.550781 L 215.816406 77.335938 L 209.289062 70.082031 L 192.757812 70.082031 L 186.367188 77.203125 L 186.367188 99.125 L 194.082031 107.703125 C 194.539062 107.542969 195.023438 107.460938 195.507812 107.460938 C 198.207031 107.460938 200.363281 109.644531 200.363281 112.316406 C 200.363281 115.011719 198.207031 117.171875 195.507812 117.171875 C 192.84375 117.171875 190.65625 115.011719 190.65625 112.316406 C 190.65625 111.644531 190.816406 110.996094 191.0625 110.402344 L 186.367188 105.171875 L 186.367188 161.234375 L 195.9375 171.886719 C 196.394531 171.726562 196.882812 171.667969 197.367188 171.667969 C 200.0625 171.667969 202.21875 173.828125 202.21875 176.496094 C 202.226562 179.191406 200.066406 181.347656 197.371094 181.347656 Z M 197.371094 181.347656 " fill-opacity="1" fill-rule="evenodd"/></svg>